HIERARCHY
ROOT Hips
{
  OFFSET 279.157 85.6768 304.565
  CHANNELS 6 Xposition Yposition Zposition Zrotation Xrotation Yrotation
  JOINT LeftUpLeg
  {
    OFFSET 8.64259 1.95398 -2.38835
    CHANNELS 3 Zrotation Xrotation Yrotation
    JOINT LeftLeg
    {
      OFFSET 43.7702 0 0
      CHANNELS 3 Zrotation Xrotation Yrotation
      JOINT LeftFoot
      {
        OFFSET 40.6238 0 0
        CHANNELS 3 Zrotation Xrotation Yrotation
        JOINT LeftToeBase
        {
          OFFSET 12.7242 0 0
          CHANNELS 3 Zrotation Xrotation Yrotation
          End Site
          {
            OFFSET 0 0 0
          }
        }
      }
    }
  }
  JOINT RightUpLeg
  {
    OFFSET -8.2249 1.95398 -2.59336
    CHANNELS 3 Zrotation Xrotation Yrotation
    JOINT RightLeg
    {
      OFFSET 43.5653 0 0
      CHANNELS 3 Zrotation Xrotation Yrotation
      JOINT RightFoot
      {
        OFFSET 40.6238 0 0
        CHANNELS 3 Zrotation Xrotation Yrotation
        JOINT RightToeBase
        {
          OFFSET 12.7242 0 0
          CHANNELS 3 Zrotation Xrotation Yrotation
          End Site
          {
            OFFSET 0 0 0
          }
        }
      }
    }
  }
  JOINT Spine
  {
    OFFSET 0.165834 0.87714 6.61349
    CHANNELS 3 Zrotation Xrotation Yrotation
    JOINT Spine1
    {
      OFFSET 7.38963 1.71661e-005 0
      CHANNELS 3 Zrotation Xrotation Yrotation
      JOINT Spine2
      {
        OFFSET 11.9445 1.14441e-005 0
        CHANNELS 3 Zrotation Xrotation Yrotation
        JOINT Spine3
        {
          OFFSET 14.7254 4.19617e-005 0
          CHANNELS 3 Zrotation Xrotation Yrotation
          JOINT Spine4
          {
            OFFSET 10.9679 0 0
            CHANNELS 3 Zrotation Xrotation Yrotation
            JOINT RightShoulder
            {
              OFFSET 2.46616 -1.6653 3.69651
              CHANNELS 3 Zrotation Xrotation Yrotation
              JOINT RightArm
              {
                OFFSET 13.0012 0 0
                CHANNELS 3 Zrotation Xrotation Yrotation
                JOINT RightForeArm
                {
                  OFFSET 28.7848 1.52588e-005 0
                  CHANNELS 3 Zrotation Xrotation Yrotation
                  JOINT RightHand
                  {
                    OFFSET 26.5688 1.52588e-005 0
                    CHANNELS 3 Zrotation Xrotation Yrotation
                    End Site
                    {
                      OFFSET 0 0 0
                    }
                  }
                }
              }
            }
            JOINT LeftShoulder
            {
              OFFSET 2.38034 -1.29275 -3.7523
              CHANNELS 3 Zrotation Xrotation Yrotation
              JOINT LeftArm
              {
                OFFSET 16.3182 6.10351e-005 0
                CHANNELS 3 Zrotation Xrotation Yrotation
                JOINT LeftForeArm
                {
                  OFFSET 27.0901 0 0
                  CHANNELS 3 Zrotation Xrotation Yrotation
                  JOINT LeftHand
                  {
                    OFFSET 24.5451 1.52588e-005 0
                    CHANNELS 3 Zrotation Xrotation Yrotation
                    End Site
                    {
                      OFFSET 0 0 0
                    }
                  }
                }
              }
            }
            JOINT Neck
            {
              OFFSET 5.0226 -0.0266342 0
              CHANNELS 3 Zrotation Xrotation Yrotation
              JOINT Head
              {
                OFFSET 6.69364 2.86102e-005 0
                CHANNELS 3 Zrotation Xrotation Yrotation
                End Site
                {
                  OFFSET 0 0 0
                }
              }
            }
          }
        }
      }
    }
  }
}
MOTION
Frames:	6
Frame Time:	0.0416667
-24.1039 91.6707 19.0642 101.877 49.2106 83.5087 -171.545 27.1311 88.8704 -7.79141 20.4903 0.556914 60.5002 12.8453 -24.5576 164.444 -4.17465 -63.1195 174.492 29.3314 96.6726 -48.1781 -6.68593 4.1943 74.4349 -1.86637 -2.08705 17.8919 2.44602 5.69988 -0.839161 7.85848 -90.183 11.1558 -1.75522 -0.193073 -0.514049 -1.76201 -0.115617 -23.0571 -1.61605 -0.711788 -3.0445 -1.61603 -0.711788 87.4558 -34.7577 -109.75 42.5644 -5.31185 4.61052 5.1586 -20.0005 -8.64529 -19.9357 -0.485256 -8.17838 -90.874 -49.2697 77.2562 -17.8788 8.99367 -27.8762 2.52689 11.0116 -8.57162 0.323242 -0.214394 -9.30316 5.8771 -2.35681 -10.2941 -3.73849 -0.389733 2.42028 
-17.0775 90.7466 12.0526 103.073 47.1478 84.1635 -171.401 24.7341 91.097 -4.75069 21.2385 0.249382 55.7376 11.9693 -25.2531 165.451 -7.7541 -65.3796 174.084 24.9315 97.6646 -55.5295 -8.86833 5.7287 81.8864 -6.35509 -2.11972 17.8168 2.38094 6.11536 -0.457885 7.95591 -90.4405 10.958 -1.11545 -0.771232 -0.712614 -1.1483 -0.721399 -23.2484 -0.832111 -1.07081 -3.23574 -0.832091 -1.07081 87.3857 -33.4678 -110.397 40.1225 -7.85182 0.392676 5.30357 -20.8406 -10.0054 -22.9555 -0.548301 -7.75521 -91.2804 -51.8482 77.243 -19.6394 10.4521 -20.4453 -0.962617 11.32 -0.764245 -0.166438 -0.122004 -6.14188 6.22126 -1.43523 -6.61664 -3.67918 -0.150551 1.30001 
-11.0948 91.1967 6.19649 102.996 47.1851 82.6983 -172.596 23.6233 89.9298 -3.93121 10.2459 0.186671 57.524 15.2817 -34.3957 172.786 1.76171 -58.7238 173.897 18.9022 96.6107 -56.7256 -9.13605 4.13826 87.8217 -8.2484 -1.49915 21.0632 1.65129 5.02525 -0.217087 8.00911 -90.2517 10.8544 -0.548444 -0.449352 -0.816472 -0.567699 -0.42478 -23.3515 -0.388047 -0.593405 -3.33889 -0.388053 -0.593414 87.4108 -33.1674 -110.474 36.8908 -7.31409 -5.33827 3.6853 -20.3288 -12.9806 -26.0572 -0.573362 -7.20515 -90.9599 -52.414 77.8386 -23.0317 10.7786 -9.955 -0.915788 8.69105 -2.29128 -0.902722 -0.104594 -5.46592 4.68434 -1.67059 -6.62877 -2.5071 -0.456753 1.57242 
-6.59265 93.0165 1.43811 101.28 44.9364 81.6293 -174.051 24.0003 88.6964 -5.38578 -4.84229 0.0756669 61.9231 14.1694 -43.7109 -177.216 23.8032 -48.3148 174.443 12.678 94.8526 -52.2178 -10.6061 1.21098 88.9971 -9.46658 -2.08031 22.3168 1.20893 5.38019 0.371101 8.05221 -89.9438 10.7685 0.76502 0.0409383 -0.902215 0.766062 0.00721609 -23.4388 0.717339 0.268962 -3.42614 0.717342 0.268963 87.9073 -31.3091 -110.317 35.3641 -6.81744 -10.0158 0.452362 -20.7804 -18.0375 -26.5687 -0.371913 -8.29862 -90.3966 -53.0797 78.7971 -23.5787 11.6731 -0.445392 -0.362069 10.6119 -8.53208 -1.76308 -0.103843 -6.69983 5.56814 -2.25773 -4.35163 -2.7358 -1.40537 -0.0709009 
-2.69261 94.6209 -3.35614 100.628 42.7336 81.7402 -176.746 24.3211 89.2061 -7.78517 0.0238311 0.0179667 60.9372 5.43274 -34.0467 -179.453 45.4295 -36.6197 174.664 4.75038 95.3354 -45.8601 -12.2966 0.0629711 87.6449 -10.547 -2.20307 24.63 0.388678 6.21375 0.938241 8.17705 -89.9288 10.5209 1.90161 -0.0286418 -1.14861 1.89849 -0.112338 -23.6944 1.82225 0.544387 -3.68176 1.82225 0.544384 87.6899 -29.195 -111.667 33.1835 -6.69468 -13.739 -1.54869 -21.1643 -22.0768 -27.6612 -0.215504 -9.07415 -90.7422 -56.1817 78.94 -21.6643 10.2385 5.59717 0.44127 10.0196 -10.9429 -2.22933 -0.0896515 -6.44421 6.23065 -2.83411 0.885832 -1.55457 -2.96312 -3.77385 
2.06796 95.858 -8.92213 102.024 42.4591 80.8269 -177.662 22.2535 88.4812 -7.85826 1.54892 -1.29471 54.5462 -3.24264 -23.319 121.595 47.2104 -1.68934 174.304 -4.82794 90.3343 -36.5563 -13.0828 -0.420496 86.0362 -12.3262 -3.77097 25.1547 0.301896 5.80819 1.21814 8.33284 -90.0315 10.2126 2.41257 -0.267763 -1.45617 2.39845 -0.373758 -24.009 2.38144 0.470114 -3.99633 2.38145 0.470117 87.6192 -28.473 -112.143 30.5773 -6.78635 -16.6393 -2.07366 -24.0786 -22.6499 -28.205 -0.313823 -9.37863 -90.7455 -58.7955 79.4552 -21.8529 6.73547 8.15501 1.21739 7.76418 -8.75417 -2.52387 -0.0894177 -5.63332 5.78626 -3.05356 3.81516 -0.866344 -3.7627 -5.10696 
